# xmcd
#
# Track frame offsets: 
#        150
#        20115
#        41920
#        62420
#        85020
#        114355
#        132622
#        149110
#        172135
#        192567
#        212797
#        233957
#
# Disc length: 3364 seconds
#
# Revision: 3
# Processed by: cddbd v1.5.1PL0 Copyright (c) Steve Scherf et al.
# Submitted via: ExactAudioCopy v0.95a5
#
DISCID=a80d220c,bd0d220c
DTITLE=Angela Brown - Thinking Out Loud
DYEAR=1998
DGENRE=Soul Blues
TTITLE0=Neighbour, Neighbour
TTITLE1=Lay It On 'em Girls
TTITLE2=Let The Back Door Hit You
TTITLE3=Blues On The Move
TTITLE4=I Intend To Take You Place
TTITLE5=If That's The Way You Like It
TTITLE6=A Man Size Job
TTITLE7=Somebody's Been Cookin'
TTITLE8=Just Because The Package Is Open
TTITLE9=You Didn't Want What You Had
TTITLE10=Steppin' In The Shoes Of A Fool
TTITLE11=God Has Smiled On Me
EXTD=
EXTT0=
EXTT1=
EXTT2=
EXTT3=
EXTT4=
EXTT5=
EXTT6=
EXTT7=
EXTT8=
EXTT9=
EXTT10=
EXTT11=
PLAYORDER=
